*********** **** **** *** ******** *********** **** *** **********

*+* +*+*+* *+*+*+ *+* *+* *+* *+* *+* *+*+* *+* *+*

+*+ +*+ +*+*+ +*+ +*+ +*+ +*+ +*+ *+*+*+ +*+ +*+

+$+ +$+ +*+ +$+ +$++*++$++* *$* +$+ +$+ +*+ +$+ +$++*++$

+$+ +$+ +$+ +$+ +$+ +$+ +$+$ +$+ +$+ +$+$+$ +$+

$+$ $+$ $+$ $+$ $+$ $+$ $+$ $+$ $+$ $+$+$ $+$

$$$$$$$$$$$ $$$ $$$ $$$ $$$ $$$$$$$$ $$$$$$$$$$$ $$$ $$$$ $$$$$$$$$$









Another Fine Release Brought to you from - IMAGiNE





********************************************************************************************************************

The Warrior's Way CAM XViD - IMAGiNE



********************************************************************************************************************



Ripper ...........:IMAGiNE IMDB Rating.......:6.5/10

Video Codec.......:XVID Release Date......:12/06/10

Audio Codec.......:MP3 Theatre Date......:12/03/10

Audio Bitrate.....:128 Runtime...........:1h 27mn

Subtitles.........:NIL Language..........:ENGLISH

Resolution........:640 x 288 IMDb URL.......... http://www.imdb.com/title/tt1032751/





DETAILS:



Video

ID : 0

Format : MPEG-4 Visual

Format profile : Advanced Simple@L5

Format settings, BVOP : Yes

Format settings, QPel : No

Format settings, GMC : No warppoints

Format settings, Matrix : Default (H.263)

Muxing mode : Packed bitstream

Codec ID : XVID

Codec ID/Hint : XviD

Duration : 1h 27mn

Bit rate : 945 Kbps

Width : 640 pixels

Height : 288 pixels

Display aspect ratio : 2.222

Frame rate : 25.000 fps

Color space : YUV

Chroma subsampling : 4:2:0

Bit depth : 8 bits

Scan type : Progressive

Bits/(Pixel*Frame) : 0.205

Stream size : 594 MiB (87%)

Writing library : XviD 1.1.2 (UTC 2006-11-01)



Audio

ID : 1

Format : MPEG Audio

Format version : Version 1

Format profile : Layer 3

Codec ID : 55

Codec ID/Hint : MP3

Duration : 1h 27mn

Bit rate mode : Constant

Bit rate : 128 Kbps

Channel(s) : 2 channels

Sampling rate : 44.1 KHz

Stream size : 80.5 MiB (12%)

Alignment : Split accross interleaves

Interleave, duration : 40 ms (1.00 video frame)

Interleave, preload duration : 500 ms













SOURCES:



VIDEO:Put.voina.2010.D.CAMRip.ELEKTRI4KA ...Thanks mate :)

AUDIO:From the LU ......Thanks mate :)



NOTES:



IMAGiNE bringing you another release.......... The Warrior's Way



Here we are with the russian cam of this one with some farily decent cam audio for it.

First off it's not the best cam but you can be the judge, it is watchable for those

who like cams. For the video we made a small script to adjust the gamma, brightness, chroma,

sharpening filter, and adjusted the colors. We also Ran a high quality smoother on it to touch it up.

The audio was given to us by LU Thanks Bro... It's fairly good so all we did was sync it to our video.





Enjoy folks....